<svg width="40" height="40" viewBox="0 0 40 40" fill="none" xmlns="http://www.w3.org/2000/svg">
<path d="M30.8004 20.0004C29.4021 18.8283 27.6244 18.2061 25.8004 18.2504H14.0754C13.5408 18.2639 13.009 18.1694 12.5118 17.9725C12.0146 17.7757 11.5622 17.4805 11.1817 17.1047C10.8013 16.7289 10.5005 16.2802 10.2976 15.7855C10.0946 15.2907 9.9935 14.7601 10.0004 14.2254C9.98737 14.0173 9.98737 13.8085 10.0004 13.6004C10.158 12.6449 10.6591 11.7798 11.4094 11.1676C12.1597 10.5554 13.1077 10.2381 14.0754 10.2754H25.6254C26.5676 10.2746 27.4794 10.6084 28.1983 11.2174C28.9171 11.8264 29.3963 12.6709 29.5504 13.6004H33.3004C33.1434 11.6727 32.2668 9.87473 30.8447 8.56387C29.4227 7.25301 27.5594 6.52529 25.6254 6.52539H21.6754V0.775391H18.5504V6.52539H14.0754C12.1414 6.52529 10.2781 7.25301 8.85607 8.56387C7.43404 9.87473 6.55738 11.6727 6.4004 13.6004C6.38737 13.8085 6.38737 14.0173 6.4004 14.2254C6.4004 15.2333 6.59892 16.2313 6.98462 17.1625C7.37033 18.0937 7.93567 18.9397 8.64836 19.6524C10.0877 21.0918 12.0399 21.9004 14.0754 21.9004H25.9254C26.4558 21.887 26.9834 21.98 27.4773 22.1738C27.9712 22.3676 28.4212 22.6582 28.801 23.0287C29.1808 23.3991 29.4826 23.8419 29.6885 24.3308C29.8945 24.8197 30.0006 25.3449 30.0004 25.8754C30.0245 26.1582 30.0245 26.4426 30.0004 26.7254C29.8019 27.605 29.3102 28.391 28.6061 28.9543C27.9019 29.5177 27.0272 29.8248 26.1254 29.8254H14.3754C13.4736 29.8248 12.5989 29.5177 11.8947 28.9543C11.1906 28.391 10.6989 27.605 10.5004 26.7254H6.7254C6.94025 28.6038 7.83866 30.3375 9.24944 31.5961C10.6602 32.8548 12.4848 33.5504 14.3754 33.5504H18.5504V39.2254H21.6754V33.5504H25.9254C27.816 33.5504 29.6406 32.8548 31.0514 31.5961C32.4621 30.3375 33.3606 28.6038 33.5754 26.7254V25.8754C33.5724 24.7525 33.3222 23.644 32.8426 22.6286C32.363 21.6133 31.6658 20.716 30.8004 20.0004Z" fill="url(#paint0_linear_829_2185)"/>
<defs>
<linearGradient id="paint0_linear_829_2185" x1="19.983" y1="0.775391" x2="19.983" y2="39.2254" gradientUnits="userSpaceOnUse">
<stop stop-color="#008299"/>
<stop offset="0.5" stop-color="#51C09E"/>
<stop offset="1" stop-color="#46E3FF"/>
</linearGradient>
</defs>
</svg>
