<svg width="54" height="54" viewBox="0 0 54 54" fill="none" xmlns="http://www.w3.org/2000/svg">
<path d="M28.3047 22.455C27.9375 22.421 27.569 22.4022 27.2002 22.3984C19.8866 22.3984 13.9609 28.3351 13.9609 35.6605C13.9609 37.8458 14.4984 39.9003 15.4324 41.7169C14.9456 40.2385 14.6969 38.692 14.6958 37.1354C14.6958 29.3687 20.6957 23.0203 28.3047 22.455ZM32.5133 46.5238C31.2201 47.3892 29.8003 48.0485 28.3047 48.4779C30.3941 48.2209 32.3937 47.4757 34.1418 46.3027C40.2193 42.2173 41.8688 34.0683 37.8264 28.0963C37.6204 27.7979 37.4017 27.5085 37.1708 27.2289C40.9061 33.7536 38.9553 42.1928 32.5133 46.5238Z" fill="#E9E0A9"/>
<path d="M37.6785 22.3754V15.0365C37.6785 14.7293 37.5106 14.4712 37.2735 14.3108L45.5625 1.6875H29.6696L27 5.69194L24.3304 1.6875H8.4375L16.7248 14.31C16.4877 14.4703 16.3198 14.7293 16.3198 15.0365V22.3754C12.539 25.4703 10.125 30.1708 10.125 35.4375C10.125 44.7567 17.6808 52.3125 27 52.3125C27.5754 52.3125 28.143 52.2838 28.7027 52.2264C37.222 51.3734 43.875 44.183 43.875 35.4375C43.875 30.1708 41.4593 25.4703 37.6785 22.3754ZM34.4469 2.53125H39.7862L32.3392 13.7017L29.6696 9.69722L34.4469 2.53125ZM35.0089 17.7061L35.8298 16.4759C35.8748 16.5822 35.8979 16.6958 35.899 16.8168V20.3766C35.8965 20.5988 35.8065 20.811 35.6484 20.9672C33.1172 19.4501 30.1658 18.5625 27 18.5625C23.9515 18.563 20.9609 19.3947 18.3499 20.968C18.1916 20.8116 18.1016 20.599 18.0993 20.3766V16.8168C18.0993 16.6961 18.1254 16.5805 18.1685 16.4759L18.9894 17.7069L35.0089 17.7061ZM14.2138 2.53125H19.5531L29.1077 16.8623H23.7684L14.2138 2.53125ZM27 49.7812C19.078 49.7812 12.6562 43.3595 12.6562 35.4375C12.6562 27.5155 19.078 21.0938 27 21.0938C34.9203 21.0938 41.3438 27.5164 41.3438 35.4375C41.3438 43.3586 34.9203 49.7812 27 49.7812Z" fill="#E9E0A9"/>
<path d="M28.8853 41.5184V26.1562H25.642C25.6421 26.4925 25.5759 26.8255 25.4473 27.1362C25.3187 27.4468 25.1302 27.7291 24.8925 27.9669C24.6548 28.2047 24.3725 28.3934 24.0619 28.5221C23.7512 28.6508 23.4183 28.717 23.082 28.717V31.9174C23.3132 31.9174 25.0606 31.7857 25.642 31.5529V41.5184H23.082V44.7188H31.4453V41.5184H28.8853Z" fill="#E9E0A9"/>
</svg>
