<svg width="40" height="40" viewBox="0 0 40 40" fill="none" xmlns="http://www.w3.org/2000/svg">
<g clip-path="url(#clip0_834_3581)">
<mask id="mask0_834_3581" style="mask-type:luminance" maskUnits="userSpaceOnUse" x="0" y="0" width="40" height="40">
<path d="M0 0H40V40H0V0Z" fill="white"/>
</mask>
<g mask="url(#mask0_834_3581)">
<path fill-rule="evenodd" clip-rule="evenodd" d="M13.7869 8.75038H15.3394L16.4394 7.65038L19.1144 4.97538C19.2305 4.85897 19.3685 4.76661 19.5203 4.7036C19.6722 4.64058 19.835 4.60814 19.9994 4.60814C20.1638 4.60814 20.3266 4.64058 20.4785 4.7036C20.6303 4.76661 20.7683 4.85897 20.8844 4.97538L23.5594 7.65038L24.6594 8.75038H29.9994C30.3309 8.75038 30.6489 8.88207 30.8833 9.1165C31.1177 9.35092 31.2494 9.66886 31.2494 10.0004V15.3404L32.3494 16.4404L35.0244 19.1154C35.1408 19.2315 35.2332 19.3694 35.2962 19.5213C35.3592 19.6732 35.3916 19.836 35.3916 20.0004C35.3916 20.1648 35.3592 20.3276 35.2962 20.4795C35.2332 20.6313 35.1408 20.7693 35.0244 20.8854L32.3494 23.5604L31.2494 24.6604V30.0004C31.2494 30.3319 31.1177 30.6498 30.8833 30.8843C30.6489 31.1187 30.3309 31.2504 29.9994 31.2504H24.6594L23.5594 32.3504L20.8844 35.0254C20.7683 35.1418 20.6303 35.2341 20.4785 35.2972C20.3266 35.3602 20.1638 35.3926 19.9994 35.3926C19.835 35.3926 19.6722 35.3602 19.5203 35.2972C19.3685 35.2341 19.2305 35.1418 19.1144 35.0254L16.4394 32.3504L15.3394 31.2504H9.9994C9.66788 31.2504 9.34994 31.1187 9.11552 30.8843C8.8811 30.6498 8.7494 30.3319 8.7494 30.0004V24.6604L7.6494 23.5604L4.9744 20.8854C4.85799 20.7693 4.76564 20.6313 4.70262 20.4795C4.6396 20.3276 4.60717 20.1648 4.60717 20.0004C4.60717 19.836 4.6396 19.6732 4.70262 19.5213C4.76564 19.3694 4.85799 19.2315 4.9744 19.1154L7.6494 16.4404L8.7494 15.3404V10.0004C8.7494 9.66886 8.8811 9.35092 9.11552 9.1165C9.34994 8.88207 9.66788 8.75038 9.9994 8.75038H13.7869ZM23.5369 2.32288C23.0725 1.858 22.5211 1.4892 21.9141 1.23758C21.3071 0.985959 20.6565 0.856445 19.9994 0.856445C19.3423 0.856445 18.6917 0.985959 18.0847 1.23758C17.4777 1.4892 16.9263 1.858 16.4619 2.32288L13.7894 5.00038H9.9994C8.67332 5.00038 7.40155 5.52716 6.46387 6.46484C5.52619 7.40253 4.9994 8.6743 4.9994 10.0004V13.7879L2.3219 16.4629C1.85702 16.9272 1.48822 17.4787 1.2366 18.0857C0.984982 18.6927 0.855469 19.3433 0.855469 20.0004C0.855469 20.6575 0.984982 21.3081 1.2366 21.9151C1.48822 22.5221 1.85702 23.0735 2.3219 23.5379L4.9994 26.2104V30.0004C4.9994 31.3265 5.52619 32.5982 6.46387 33.5359C7.40155 34.4736 8.67332 35.0004 9.9994 35.0004H13.7869L16.4619 37.6779C16.9263 38.1428 17.4777 38.5116 18.0847 38.7632C18.6917 39.0148 19.3423 39.1443 19.9994 39.1443C20.6565 39.1443 21.3071 39.0148 21.9141 38.7632C22.5211 38.5116 23.0725 38.1428 23.5369 37.6779L26.2094 35.0004H29.9994C31.3255 35.0004 32.5973 34.4736 33.5349 33.5359C34.4726 32.5982 34.9994 31.3265 34.9994 30.0004V26.2129L37.6769 23.5379C38.1418 23.0735 38.5106 22.5221 38.7622 21.9151C39.0138 21.3081 39.1433 20.6575 39.1433 20.0004C39.1433 19.3433 39.0138 18.6927 38.7622 18.0857C38.5106 17.4787 38.1418 16.9272 37.6769 16.4629L34.9994 13.7904V10.0004C34.9994 8.6743 34.4726 7.40253 33.5349 6.46484C32.5973 5.52716 31.3255 5.00038 29.9994 5.00038H26.2119L23.5369 2.32288ZM16.3244 26.3254L26.3244 16.3254C26.5086 16.1537 26.6564 15.9467 26.7589 15.7167C26.8613 15.4867 26.9164 15.2384 26.9209 14.9867C26.9253 14.7349 26.879 14.4849 26.7847 14.2514C26.6904 14.0179 26.55 13.8058 26.372 13.6278C26.194 13.4497 25.9819 13.3094 25.7484 13.2151C25.5149 13.1208 25.2649 13.0745 25.0131 13.0789C24.7613 13.0833 24.5131 13.1384 24.2831 13.2409C24.0531 13.3434 23.8461 13.4912 23.6744 13.6754L13.6744 23.6754C13.4902 23.847 13.3424 24.054 13.2399 24.284C13.1375 24.514 13.0824 24.7623 13.0779 25.0141C13.0735 25.2658 13.1198 25.5159 13.2141 25.7494C13.3084 25.9828 13.4488 26.1949 13.6268 26.373C13.8049 26.551 14.0169 26.6914 14.2504 26.7857C14.4839 26.88 14.734 26.9263 14.9857 26.9219C15.2375 26.9174 15.4857 26.8623 15.7157 26.7598C15.9457 26.6574 16.1527 26.5096 16.3244 26.3254ZM27.4994 25.0004C27.4994 25.6634 27.236 26.2993 26.7672 26.7681C26.2983 27.237 25.6624 27.5004 24.9994 27.5004C24.3364 27.5004 23.7005 27.237 23.2316 26.7681C22.7628 26.2993 22.4994 25.6634 22.4994 25.0004C22.4994 24.3373 22.7628 23.7015 23.2316 23.2326C23.7005 22.7638 24.3364 22.5004 24.9994 22.5004C25.6624 22.5004 26.2983 22.7638 26.7672 23.2326C27.236 23.7015 27.4994 24.3373 27.4994 25.0004ZM14.9994 17.5004C15.6624 17.5004 16.2983 17.237 16.7672 16.7681C17.236 16.2993 17.4994 15.6634 17.4994 15.0004C17.4994 14.3373 17.236 13.7015 16.7672 13.2326C16.2983 12.7638 15.6624 12.5004 14.9994 12.5004C14.3364 12.5004 13.7005 12.7638 13.2316 13.2326C12.7628 13.7015 12.4994 14.3373 12.4994 15.0004C12.4994 15.6634 12.7628 16.2993 13.2316 16.7681C13.7005 17.237 14.3364 17.5004 14.9994 17.5004Z" fill="url(#paint0_linear_834_3581)"/>
</g>
</g>
<defs>
<linearGradient id="paint0_linear_834_3581" x1="19.9994" y1="0.856445" x2="19.9994" y2="39.1443" gradientUnits="userSpaceOnUse">
<stop stop-color="#008299"/>
<stop offset="0.5" stop-color="#51C09E"/>
<stop offset="1" stop-color="#46E3FF"/>
</linearGradient>
<clipPath id="clip0_834_3581">
<rect width="40" height="40" fill="white"/>
</clipPath>
</defs>
</svg>
