<svg width="54" height="54" viewBox="0 0 54 54" fill="none" xmlns="http://www.w3.org/2000/svg">
<path d="M37.6785 22.3754V15.0365C37.6785 14.7293 37.5106 14.4712 37.2735 14.3108L45.5625 1.6875H29.6696L27 5.69194L24.3304 1.6875H8.4375L16.7248 14.31C16.4877 14.4703 16.3198 14.7293 16.3198 15.0365V22.3754C12.539 25.4703 10.125 30.1708 10.125 35.4375C10.125 44.7567 17.6808 52.3125 27 52.3125C27.5754 52.3125 28.143 52.2838 28.7027 52.2264C37.222 51.3734 43.875 44.183 43.875 35.4375C43.875 30.1708 41.4593 25.4703 37.6785 22.3754ZM34.4469 2.53125H39.7862L32.3392 13.7017L29.6696 9.69722L34.4469 2.53125ZM35.0089 17.7061L35.8298 16.4759C35.8748 16.5822 35.8979 16.6958 35.899 16.8168V20.3766C35.8965 20.5988 35.8065 20.811 35.6484 20.9672C33.1172 19.4501 30.1658 18.5625 27 18.5625C23.9515 18.563 20.9609 19.3947 18.3499 20.968C18.1916 20.8116 18.1016 20.599 18.0993 20.3766V16.8168C18.0993 16.6961 18.1254 16.5805 18.1685 16.4759L18.9894 17.7069L35.0089 17.7061ZM14.2138 2.53125H19.5531L29.1077 16.8623H23.7684L14.2138 2.53125ZM27 49.7812C19.078 49.7812 12.6562 43.3595 12.6562 35.4375C12.6562 27.5155 19.078 21.0938 27 21.0938C34.9203 21.0938 41.3438 27.5164 41.3438 35.4375C41.3438 43.3586 34.9203 49.7812 27 49.7812Z" fill="#CACDD4"/>
<path d="M27.2002 22.3984C19.8883 22.3984 13.9609 28.3351 13.9609 35.6605C13.9609 37.8458 14.4984 39.9003 15.4324 41.7169C14.946 40.2378 14.6979 38.6907 14.6975 37.1337C14.6975 29.3687 20.6957 23.022 28.3047 22.455C27.9375 22.421 27.569 22.4022 27.2002 22.3984ZM32.5133 46.5238C31.2208 47.3904 29.8008 48.0498 28.3047 48.4779C30.3941 48.2209 32.3937 47.4757 34.1417 46.3027C40.2193 42.2173 41.8688 34.0683 37.8264 28.098C37.6205 27.7942 37.3978 27.509 37.1708 27.2281C40.9061 33.7553 38.957 42.1928 32.5133 46.5238Z" fill="#CACDD4"/>
<path d="M32.4404 41.5185H24.7589V39.599C24.7592 38.9201 25.0289 38.269 25.5089 37.7888C25.9889 37.3086 26.6399 37.0387 27.3189 37.0382C27.9913 37.0384 28.6572 36.9062 29.2786 36.649C29.8999 36.3918 30.4644 36.0146 30.94 35.5392C31.4155 35.0637 31.7927 34.4992 32.05 33.878C32.3073 33.2567 32.4397 32.5908 32.4396 31.9183C32.4396 29.4234 31.174 26.1572 26.6793 26.1572C23.6848 26.1572 21.5586 28.4311 21.5586 31.9183H24.7589C24.7589 30.6013 25.752 29.3854 27.0388 29.3854C28.571 29.3854 29.2393 30.3937 29.2393 31.2788C29.239 31.9576 28.9692 32.6085 28.4892 33.0884C28.0091 33.5683 27.3581 33.8379 26.6793 33.8379C25.3211 33.8381 24.0187 34.3778 23.0584 35.3382C22.0981 36.2987 21.5586 37.6013 21.5586 38.9594V44.7189H32.4396L32.4404 41.5185Z" fill="#CACDD4"/>
</svg>
