<svg width="54" height="54" viewBox="0 0 54 54" fill="none" xmlns="http://www.w3.org/2000/svg">
<path d="M37.6785 22.3771V15.039C37.6763 14.8939 37.6382 14.7515 37.5675 14.6247C37.4969 14.4979 37.3958 14.3907 37.2735 14.3125L45.5625 1.6875H29.6696L27 5.69278L24.3304 1.6875H8.4375L16.7248 14.3108C16.6025 14.389 16.5015 14.4963 16.4308 14.623C16.3601 14.7498 16.322 14.8922 16.3198 15.0373V22.3754C12.539 25.4711 10.125 30.1717 10.125 35.4383C10.125 44.7576 17.6808 52.3125 27 52.3125C27.5754 52.3125 28.143 52.2838 28.7027 52.2264C37.222 51.3742 43.875 44.1838 43.875 35.4383C43.875 30.1717 41.4593 25.4711 37.6785 22.3771ZM34.4469 2.53125H39.7862L32.3392 13.7025L29.6696 9.69806L34.4469 2.53125ZM35.0089 17.7078L35.8298 16.4767C35.8748 16.5825 35.8979 16.6961 35.899 16.8176V20.3774C35.8986 20.4874 35.8762 20.5963 35.8332 20.6976C35.7902 20.7988 35.7273 20.8905 35.6484 20.9672C33.1172 19.451 30.1658 18.5625 27 18.5625C23.9514 18.5628 20.9607 19.3948 18.3499 20.9689C18.1916 20.8125 18.1016 20.5999 18.0993 20.3774V16.8176C18.0993 16.6953 18.1254 16.5805 18.1685 16.4767L18.9894 17.7078H35.0089ZM14.2138 2.53125H19.5531L29.1077 16.864H23.7684L14.2138 2.53125ZM27 49.7821C19.078 49.7821 12.6562 43.3603 12.6562 35.4383C12.6562 27.5164 19.078 21.0946 27 21.0946C34.9203 21.0946 41.3438 27.5164 41.3438 35.4383C41.3438 43.3603 34.9203 49.7821 27 49.7821Z" fill="#B9A29A"/>
<path d="M27.2002 22.3994C19.8883 22.3994 13.9609 28.3369 13.9609 35.6606C13.9609 37.8459 14.4984 39.9005 15.4324 41.7188C14.9472 40.2388 14.6992 38.6913 14.6975 37.1338C14.6975 29.3688 20.6957 23.0221 28.3047 22.4559C27.9375 22.422 27.569 22.4032 27.2002 22.3994ZM32.5133 46.5239C31.2215 47.3918 29.8013 48.0512 28.3047 48.478C30.3944 48.2222 32.3943 47.477 34.1418 46.3029C40.2193 42.2174 41.8688 34.0685 37.8281 28.0981C37.6207 27.7999 37.402 27.5098 37.1725 27.2282C40.9061 33.7554 38.9553 42.1929 32.5133 46.5239Z" fill="#B9A29A"/>
<path d="M32.8008 38.9555C32.8008 37.8552 32.5013 36.9167 31.9022 36.1399C31.3026 35.3625 30.5024 34.8625 29.5017 34.6397C31.1768 33.6891 32.0147 32.4161 32.0153 30.8209C32.0153 29.697 31.6063 28.6887 30.7884 27.7961C29.7962 26.7042 28.478 26.1586 26.8338 26.1592C25.873 26.1592 25.0057 26.3473 24.2317 26.7236C23.4565 27.0994 22.853 27.6161 22.421 28.2736C21.9878 28.9301 21.6644 29.8084 21.4507 30.9086L24.5346 31.4537C24.6223 30.6606 24.8687 30.057 25.2737 29.643C25.4616 29.4439 25.6888 29.286 25.941 29.1794C26.1931 29.0728 26.4647 29.0197 26.7384 29.0237C27.3178 29.0237 27.7824 29.2057 28.1323 29.5696C28.4816 29.9324 28.6563 30.4198 28.6563 31.0318C28.6563 31.7518 28.4178 32.3284 27.9408 32.7615C27.4643 33.1963 26.7733 33.4014 25.8677 33.3766L25.4981 36.2158C26.0938 36.042 26.6062 35.9551 27.0354 35.9551C27.6857 35.9551 28.2375 36.2113 28.6909 36.7238C29.1443 37.2356 29.3709 37.9298 29.3709 38.8061C29.3709 39.7331 29.1344 40.4692 28.6613 41.0142C28.1883 41.5593 27.6067 41.8321 26.9165 41.8327C26.273 41.8321 25.7251 41.6046 25.2728 41.1501C24.5945 40.4683 24.543 40.038 24.4392 39.1774L21.1992 39.5875C21.3663 41.1158 21.9698 42.3536 23.0099 43.3008C24.0505 44.2469 25.3609 44.7203 26.9409 44.7208C28.6076 44.7208 30.0012 44.1586 31.1217 43.0342C32.2411 41.9103 32.8008 40.5507 32.8008 38.9555Z" fill="#B9A29A"/>
</svg>
