<svg width="34" height="34" viewBox="0 0 34 34" fill="none" xmlns="http://www.w3.org/2000/svg">
<g clip-path="url(#clip0_663_1413)">
<path d="M9.74256 15.6623L9.00866 16.4306L9.77696 17.1645L9.04305 17.9328L9.81136 18.6667L10.5453 17.8984L11.3136 18.6323L12.0475 17.864L12.8158 18.5979L13.5497 17.8296L14.318 18.5635L15.0519 17.7952L16.5885 19.263L15.8546 20.0313L16.6229 20.7652L15.889 21.5335L16.6573 22.2674L15.9234 23.0357L16.6917 23.7696L15.9578 24.5379L16.7261 25.2718L17.46 24.5035L18.2283 25.2374L18.9622 24.4691L18.1939 23.7352L18.9278 22.9669L18.1595 22.233L18.8934 21.4647L18.1251 20.7308L18.859 19.9625L18.0907 19.2286L19.5585 17.692L20.3268 18.4259L21.0607 17.6576L21.829 18.3915L22.5629 17.6232L23.3312 18.3571L24.0651 17.5888L24.8334 18.3227L25.5673 17.5544L24.799 16.8205L25.5329 16.0522L24.7646 15.3183L24.0307 16.0866L23.2624 15.3527L22.5285 16.121L21.7602 15.3871L21.0263 16.1554L20.258 15.4215L19.5241 16.1898L17.9875 14.722L18.7214 13.9537L17.9531 13.2198L18.687 12.4515L17.9187 11.7176L18.6526 10.9492L17.8843 10.2153L18.6182 9.44704L17.8499 8.71314L17.116 9.48144L16.3477 8.74754L15.6138 9.51584L16.3821 10.2497L15.6482 11.018L16.4165 11.752L15.6826 12.5203L16.4509 13.2542L15.717 14.0225L16.4853 14.7564L15.0175 16.293L14.2492 15.5591L13.5153 16.3274L12.747 15.5935L12.0131 16.3618L11.2448 15.6279L10.5109 16.3962M6.73814 15.7311L8.93986 13.4262L9.70816 14.1601L10.4421 13.3918L11.2104 14.1257L11.9443 13.3574L12.7126 14.0913L14.1804 12.5547L13.4121 11.8208L14.146 11.0524L13.3777 10.3185L14.1116 9.55024L13.3433 8.81633L15.545 6.51142L16.3133 7.24533L17.0472 6.47702L17.8155 7.21093L18.5494 6.44262L20.8543 8.64434L20.1204 9.41264L20.8887 10.1465L20.1548 10.9148L20.9231 11.6488L20.1892 12.4171L21.7258 13.8849L22.4597 13.1166L23.228 13.8505L23.9619 13.0822L24.7302 13.8161L25.4641 13.0478L27.7691 15.2495L27.0352 16.0178L27.8035 16.7517L27.0696 17.52L27.8379 18.2539L25.6361 20.5588L24.8678 19.8249L24.1339 20.5932L23.3656 19.8593L22.6317 20.6276L21.8634 19.8937L20.3956 21.4303L21.1639 22.1642L20.43 22.9325L21.1983 23.6664L20.4644 24.4347L21.2327 25.1686L19.031 27.4735L18.2627 26.7396L17.5288 27.5079L16.7605 26.774L16.0266 27.5423L13.7217 25.3406L14.4556 24.5723L13.6873 23.8384L14.4212 23.0701L13.6529 22.3362L14.3868 21.5679L12.8502 20.1001L12.1163 20.8684L11.348 20.1345L10.6141 20.9028L9.84576 20.1689L9.11185 20.9372L6.80694 18.7355L7.54085 17.9672L6.77254 17.2333L7.50645 16.465L6.73814 15.7311Z" fill="white"/>
</g>
<defs>
<clipPath id="clip0_663_1413">
<rect width="24" height="24" fill="white" transform="translate(33.9326 16.6113) rotate(133.688)"/>
</clipPath>
</defs>
</svg>
