<svg width="32" height="33" viewBox="0 0 32 33" fill="none" xmlns="http://www.w3.org/2000/svg">
<path d="M16 7.16666L15.0573 6.22399L16 5.28133L16.9427 6.22399L16 7.16666ZM17.3333 19.1667C17.3333 19.5203 17.1929 19.8594 16.9428 20.1095C16.6928 20.3595 16.3536 20.5 16 20.5C15.6464 20.5 15.3072 20.3595 15.0572 20.1095C14.8071 19.8594 14.6667 19.5203 14.6667 19.1667H17.3333ZM8.39067 12.8907L15.0573 6.22399L16.9427 8.10933L10.276 14.776L8.39067 12.8907ZM16.9427 6.22399L23.6093 12.8907L21.724 14.776L15.0573 8.10933L16.9427 6.22399ZM17.3333 7.16666V19.1667H14.6667V7.16666H17.3333Z" fill="white"/>
<path d="M6.66667 21.8333V23.1667C6.66667 23.8739 6.94762 24.5522 7.44772 25.0523C7.94782 25.5524 8.62609 25.8333 9.33334 25.8333H22.6667C23.3739 25.8333 24.0522 25.5524 24.5523 25.0523C25.0524 24.5522 25.3333 23.8739 25.3333 23.1667V21.8333" stroke="white" stroke-width="2"/>
</svg>
