<svg width="32" height="33" viewBox="0 0 32 33" fill="none" xmlns="http://www.w3.org/2000/svg">
<path d="M18.6667 16.5L13.3333 11.1667V15.1667H2.66667V17.8333H13.3333V21.8333M26.6667 24.5V8.49999C26.6667 7.79275 26.3857 7.11447 25.8856 6.61438C25.3855 6.11428 24.7073 5.83333 24 5.83333H8.00001C7.29276 5.83333 6.61448 6.11428 6.11439 6.61438C5.61429 7.11447 5.33334 7.79275 5.33334 8.49999V12.5H8.00001V8.49999H24V24.5H8.00001V20.5H5.33334V24.5C5.33334 25.2072 5.61429 25.8855 6.11439 26.3856C6.61448 26.8857 7.29276 27.1667 8.00001 27.1667H24C24.7073 27.1667 25.3855 26.8857 25.8856 26.3856C26.3857 25.8855 26.6667 25.2072 26.6667 24.5Z" fill="white"/>
</svg>
