<svg width="18" height="20" viewBox="0 0 18 20" fill="none" xmlns="http://www.w3.org/2000/svg">
<path d="M17 10.5V16.75C17.0001 17.5801 16.6824 18.3788 16.1123 18.9822C15.5422 19.5856 14.7628 19.948 13.934 19.995L13.75 20H4.25C3.41986 20.0001 2.62117 19.6824 2.01777 19.1123C1.41437 18.5422 1.052 17.7628 1.005 16.934L1 16.75V10.5H17Z" fill="url(#paint0_linear_663_1341)"/>
<path d="M16.75 5C17.44 5 18 5.56 18 6.25V9.75C18.0001 10.0382 17.9006 10.3175 17.7183 10.5407C17.5361 10.764 17.2823 10.9174 17 10.975H1C0.43 10.859 0 10.355 0 9.75V6.25C0 5.56 0.56 5 1.25 5H16.75Z" fill="url(#paint1_radial_663_1341)"/>
<path d="M8.25 20V10H9.75V20H8.25Z" fill="url(#paint2_linear_663_1341)"/>
<path d="M8.25 11V6H9.75V11H8.25Z" fill="url(#paint3_linear_663_1341)"/>
<path fill-rule="evenodd" clip-rule="evenodd" d="M6.49971 6.5C5.95259 6.49995 5.41434 6.36178 4.93485 6.0983C4.45535 5.83481 4.05013 5.45454 3.75676 4.99273C3.46338 4.53092 3.29133 4.00252 3.25657 3.4565C3.2218 2.91049 3.32545 2.36453 3.55789 1.86925C3.79033 1.37396 4.14405 0.945366 4.58626 0.623198C5.02847 0.30103 5.54485 0.0957135 6.08755 0.0262791C6.63024 -0.0431552 7.18169 0.0255403 7.69076 0.225998C8.19983 0.426456 8.65006 0.752188 8.99971 1.173C9.34937 0.752188 9.7996 0.426456 10.3087 0.225998C10.8177 0.0255403 11.3692 -0.0431552 11.9119 0.0262791C12.4546 0.0957135 12.971 0.30103 13.4132 0.623198C13.8554 0.945366 14.2091 1.37396 14.4415 1.86925C14.674 2.36453 14.7776 2.91049 14.7429 3.4565C14.7081 4.00252 14.5361 4.53092 14.2427 4.99273C13.9493 5.45454 13.5441 5.83481 13.0646 6.0983C12.5851 6.36178 12.0468 6.49995 11.4997 6.5H6.49971ZM4.74971 3.25C4.74971 2.78587 4.93409 2.34075 5.26228 2.01256C5.59047 1.68438 6.03559 1.5 6.49971 1.5C6.96384 1.5 7.40896 1.68438 7.73715 2.01256C8.06534 2.34075 8.24971 2.78587 8.24971 3.25V5H6.49971C6.03559 5 5.59047 4.81563 5.26228 4.48744C4.93409 4.15925 4.74971 3.71413 4.74971 3.25ZM9.74971 5H11.4997C11.8458 5 12.1842 4.89736 12.472 4.70507C12.7597 4.51278 12.9841 4.23947 13.1165 3.9197C13.249 3.59993 13.2836 3.24806 13.2161 2.90859C13.1486 2.56913 12.9819 2.25731 12.7372 2.01256C12.4924 1.76782 12.1806 1.60115 11.8411 1.53363C11.5017 1.4661 11.1498 1.50076 10.83 1.63321C10.5102 1.76566 10.2369 1.98997 10.0446 2.27775C9.85235 2.56554 9.74971 2.90388 9.74971 3.25V5Z" fill="black"/>
<path fill-rule="evenodd" clip-rule="evenodd" d="M6.49971 6.5C5.95259 6.49995 5.41434 6.36178 4.93485 6.0983C4.45535 5.83481 4.05013 5.45454 3.75676 4.99273C3.46338 4.53092 3.29133 4.00252 3.25657 3.4565C3.2218 2.91049 3.32545 2.36453 3.55789 1.86925C3.79033 1.37396 4.14405 0.945366 4.58626 0.623198C5.02847 0.30103 5.54485 0.0957135 6.08755 0.0262791C6.63024 -0.0431552 7.18169 0.0255403 7.69076 0.225998C8.19983 0.426456 8.65006 0.752188 8.99971 1.173C9.34937 0.752188 9.7996 0.426456 10.3087 0.225998C10.8177 0.0255403 11.3692 -0.0431552 11.9119 0.0262791C12.4546 0.0957135 12.971 0.30103 13.4132 0.623198C13.8554 0.945366 14.2091 1.37396 14.4415 1.86925C14.674 2.36453 14.7776 2.91049 14.7429 3.4565C14.7081 4.00252 14.5361 4.53092 14.2427 4.99273C13.9493 5.45454 13.5441 5.83481 13.0646 6.0983C12.5851 6.36178 12.0468 6.49995 11.4997 6.5H6.49971ZM4.74971 3.25C4.74971 2.78587 4.93409 2.34075 5.26228 2.01256C5.59047 1.68438 6.03559 1.5 6.49971 1.5C6.96384 1.5 7.40896 1.68438 7.73715 2.01256C8.06534 2.34075 8.24971 2.78587 8.24971 3.25V5H6.49971C6.03559 5 5.59047 4.81563 5.26228 4.48744C4.93409 4.15925 4.74971 3.71413 4.74971 3.25ZM9.74971 5H11.4997C11.8458 5 12.1842 4.89736 12.472 4.70507C12.7597 4.51278 12.9841 4.23947 13.1165 3.9197C13.249 3.59993 13.2836 3.24806 13.2161 2.90859C13.1486 2.56913 12.9819 2.25731 12.7372 2.01256C12.4924 1.76782 12.1806 1.60115 11.8411 1.53363C11.5017 1.4661 11.1498 1.50076 10.83 1.63321C10.5102 1.76566 10.2369 1.98997 10.0446 2.27775C9.85235 2.56554 9.74971 2.90388 9.74971 3.25V5Z" fill="url(#paint4_linear_663_1341)"/>
<defs>
<linearGradient id="paint0_linear_663_1341" x1="7.98" y1="23.733" x2="7.98" y2="6.8" gradientUnits="userSpaceOnUse">
<stop stop-color="#058197"/>
<stop offset="0.348" stop-color="#51CEE4"/>
<stop offset="1" stop-color="#46E3FF"/>
</linearGradient>
<radialGradient id="paint1_radial_663_1341" cx="0" cy="0" r="1" gradientUnits="userSpaceOnUse" gradientTransform="translate(9 2.76) scale(23.183 9.33595)">
<stop offset="0.196" stop-color="#058197"/>
<stop offset="0.763" stop-color="#51CEE4"/>
<stop offset="1" stop-color="#46E3FF"/>
</radialGradient>
<linearGradient id="paint2_linear_663_1341" x1="8.25" y1="4.375" x2="8.25" y2="18.261" gradientUnits="userSpaceOnUse">
<stop stop-color="#FB5937"/>
<stop offset="1" stop-color="#FFCD0F"/>
</linearGradient>
<linearGradient id="paint3_linear_663_1341" x1="8.25" y1="-15.429" x2="8.25" y2="19.571" gradientUnits="userSpaceOnUse">
<stop stop-color="#FB5937"/>
<stop offset="1" stop-color="#FFCD0F"/>
</linearGradient>
<linearGradient id="paint4_linear_663_1341" x1="12.1937" y1="6.498" x2="8.90472" y2="-6.901" gradientUnits="userSpaceOnUse">
<stop stop-color="#FF6F47"/>
<stop offset="1" stop-color="#FFCD0F"/>
</linearGradient>
</defs>
</svg>
