<svg width="22" height="22" viewBox="0 0 22 22" fill="none" xmlns="http://www.w3.org/2000/svg">
<path fill-rule="evenodd" clip-rule="evenodd" d="M4.58301 2.75H17.4163L8.08101 12.0853C7.93043 11.699 7.6852 11.3567 7.36784 11.0898C7.15884 10.9083 6.86642 10.7443 6.28342 10.4152L3.61317 8.91183C2.74326 8.42325 2.30876 8.1785 2.07134 7.78433C1.83301 7.38925 1.83301 6.91258 1.83301 5.96108V5.32858C1.83301 4.11308 1.83301 3.50442 2.23634 3.12675C2.63784 2.75 3.28592 2.75 4.58301 2.75Z" fill="#46E3FF"/>
<path opacity="0.5" d="M20.1663 5.962V5.3295C20.1663 4.114 20.1663 3.50533 19.763 3.12767C19.3615 2.75 18.7134 2.75 17.4163 2.75L8.08008 12.0853C8.12591 12.2033 8.16288 12.3264 8.191 12.4547C8.24966 12.716 8.24966 13.0222 8.24966 13.6336V16.0811C8.24966 16.9143 8.24966 17.3314 8.48066 17.6559C8.71166 17.9813 9.12233 18.1418 9.94183 18.4626C11.6642 19.1354 12.525 19.4718 13.1373 19.0887C13.7497 18.7055 13.7497 17.831 13.7497 16.0802V13.6327C13.7497 13.0222 13.7497 12.716 13.8074 12.4547C13.9228 11.9204 14.2131 11.4397 14.6324 11.0889C14.8405 10.9083 15.132 10.7443 15.7159 10.4152L18.3862 8.91183C19.2552 8.42325 19.6906 8.1785 19.928 7.78433C20.1663 7.39017 20.1663 6.9135 20.1663 5.962Z" fill="#46E3FF"/>
</svg>
