<svg width="308" height="105" viewBox="0 0 308 105" fill="none" xmlns="http://www.w3.org/2000/svg">
<path d="M206.976 74.2981C206.976 82.6332 200.183 89.391 191.804 89.391C183.425 89.391 176.632 82.6332 176.632 74.2981C176.632 65.9631 183.425 59.2053 191.804 59.2053C200.183 59.2053 206.976 65.9631 206.976 74.2981ZM201.215 74.3067C201.215 69.1405 197.006 64.9531 191.813 64.9531C186.619 64.9531 182.41 69.1405 182.41 74.3067C182.41 79.4728 186.619 83.6602 191.813 83.6602C197.006 83.6602 201.215 79.4728 201.215 74.3067Z" fill="#46E3FF"/>
<path d="M80.1655 59.9458L92.457 88.6789L86.5708 88.4604L83.5735 82.4403L70.2383 82.6588L67.5775 88.4633L62.1418 88.6817L73.9542 60.5955C75.0322 59.2252 78.4516 60.0309 80.1712 59.9515L80.1655 59.9458ZM81.5972 77.4274L77.519 67.0752C76.7747 66.5191 73.0045 76.616 72.5483 77.4274H81.5972Z" fill="#46E3FF"/>
<path d="M25.487 65.2708V59.8691H47.2096L46.8645 65.1573L32.7278 83.28H48.1136C48.1279 84.4063 48.0737 85.5411 48.105 86.6702C48.1307 87.6178 48.9663 88.032 47.8883 88.6675C47.7143 88.6618 47.5689 88.2334 47.4349 88.2334H24.5829L24.8282 84.1992L39.5181 65.2736H25.4898L25.487 65.2708Z" fill="#46E3FF"/>
<path d="M262.151 60.5443L262.824 60.028C269.663 59.367 276.672 61.2536 283.414 59.8691L283.42 65.2708H268.034V72.9222H281.609V77.8727H268.034V88.676H262.151V60.5415V60.5443Z" fill="#46E3FF"/>
<path d="M230.929 83.2771H245.861C245.636 84.4998 246.497 88.1681 245.12 88.6163L225.045 88.6787V60.3202C226.089 60.7712 230.929 59.2024 230.929 60.5443V83.2771Z" fill="#46E3FF"/>
<path d="M180.699 33.7659L153.05 88.8603C152.503 89.9157 149.351 89.8362 148.567 89.3624C148.048 89.0504 143.653 79.9805 143.063 78.6329C142.558 77.4783 141.124 74.7746 141.543 73.8441C141.734 73.4242 145.402 69.4553 145.852 69.7787L150.84 79.4613L169.839 41.6414L165.319 42.3166C165.188 42.1861 165.738 39.5363 166.001 39.1732C166.657 38.271 178.763 34.7872 180.702 33.7715L180.699 33.7659Z" fill="url(#paint0_linear_650_33940)"/>
<path d="M105.128 42.311C103.668 42.2514 102.376 41.562 100.947 41.2954C100.354 41.1847 100.057 40.4556 100.157 41.6301L119.162 80.1253L124.814 69.3277L128.986 74.4967L121.115 89.6009C119.441 89.5044 117.385 90.1683 116.512 88.3895L89.2944 33.9901C90.0758 33.6213 91.4276 34.3759 92.2403 34.6596C94.2081 35.3462 103.779 38.6002 104.432 39.6357C104.64 39.9648 105.231 42.2202 105.128 42.3139V42.311Z" fill="url(#paint1_linear_650_33940)"/>
<path d="M118.249 37.8143C118.506 38.0781 116.575 42.4783 116.45 43.4543C116.264 44.8728 118.74 43.7238 119.156 44.1153L117.414 52.1496L128.094 57.7272L130.994 65.6424C133.906 65.4864 136.204 65.1232 139.093 65.9573L142.441 57.5967L153.042 52.1582L150.837 44.3309L153.997 44.1096L152.189 37.8143L157.833 40.9719L160.328 47.0431L155.355 46.8161L158.452 50.2772L157.998 55.52L144.515 62.8139C142.972 64.2267 142.316 68.7801 141.004 69.7958C140.574 70.1305 135.78 72.0341 135.223 72.0398C134.385 72.0483 130.586 70.6043 129.879 70.1277C128.074 68.9135 127.355 64.326 125.265 62.5614C122.242 60.0081 115.52 58.4052 112.449 55.5058C111.47 51.5312 111.787 49.741 114.625 46.8161L109.651 47.0402C111.14 45.4912 111.322 42.379 112.56 40.9293C113.013 40.396 117.978 37.5391 118.244 37.8115L118.249 37.8143Z" fill="url(#paint2_linear_650_33940)"/>
<path d="M125.427 23.3485C125.313 23.5442 123.24 24.262 122.869 25.5244C122.393 27.1472 123.22 31.9701 122.701 32.7871L115.086 36.9093L119.159 15.3027L125.265 22.0548C125.487 22.4349 125.658 22.9513 125.427 23.3456V23.3485Z" fill="url(#paint3_linear_650_33940)"/>
<path d="M155.352 36.9122L147.76 32.7702C147.164 31.7517 148.094 27.1927 147.58 25.5188C147.238 24.4067 145.253 24.1003 144.991 23.1017C144.697 21.9868 150.005 16.5596 151.063 15.3057L155.355 36.9122H155.352Z" fill="url(#paint4_linear_650_33940)"/>
<path d="M143.14 24.3129C143.385 24.6364 140.836 28.7897 139.761 28.8011C138.768 28.8124 136.607 27.2038 135.221 27.2067C133.76 27.2067 131.485 28.7926 129.856 28.8436L127.29 24.5456C129.434 23.9498 133.144 21.5639 135.229 21.5866C137.291 21.6093 140.862 24.0945 143.137 24.3129H143.14Z" fill="url(#paint5_linear_650_33940)"/>
<path d="M139.071 49.0659C139.567 43.8061 142.955 43.1111 147.207 41.4146C146.297 46.1949 143 47.2304 139.071 49.0659Z" fill="url(#paint6_linear_650_33940)"/>
<path d="M131.371 49.0658C127.926 47.2473 123.956 46.4841 123.685 41.8655C128.065 42.9038 130.715 44.3081 131.371 49.0658Z" fill="url(#paint7_linear_650_33940)"/>
<defs>
<linearGradient id="paint0_linear_650_33940" x1="161.085" y1="33.7659" x2="161.085" y2="89.696" gradientUnits="userSpaceOnUse">
<stop stop-color="#46E3FF"/>
<stop offset="1" stop-color="#2A8899"/>
</linearGradient>
<linearGradient id="paint1_linear_650_33940" x1="109.14" y1="33.8906" x2="109.14" y2="89.6451" gradientUnits="userSpaceOnUse">
<stop stop-color="#46E3FF"/>
<stop offset="1" stop-color="#2A8899"/>
</linearGradient>
<linearGradient id="paint2_linear_650_33940" x1="134.99" y1="37.7932" x2="134.99" y2="72.0399" gradientUnits="userSpaceOnUse">
<stop stop-color="#46E3FF"/>
<stop offset="1" stop-color="#2A8899"/>
</linearGradient>
<linearGradient id="paint3_linear_650_33940" x1="120.312" y1="15.3027" x2="120.312" y2="36.9093" gradientUnits="userSpaceOnUse">
<stop stop-color="#46E3FF"/>
<stop offset="1" stop-color="#2A8899"/>
</linearGradient>
<linearGradient id="paint4_linear_650_33940" x1="150.167" y1="15.3057" x2="150.167" y2="36.9122" gradientUnits="userSpaceOnUse">
<stop stop-color="#46E3FF"/>
<stop offset="1" stop-color="#2A8899"/>
</linearGradient>
<linearGradient id="paint5_linear_650_33940" x1="135.223" y1="21.5864" x2="135.223" y2="28.8436" gradientUnits="userSpaceOnUse">
<stop stop-color="#46E3FF"/>
<stop offset="1" stop-color="#2A8899"/>
</linearGradient>
<linearGradient id="paint6_linear_650_33940" x1="143.139" y1="41.4146" x2="143.139" y2="49.0659" gradientUnits="userSpaceOnUse">
<stop stop-color="#46E3FF"/>
<stop offset="1" stop-color="#2A8899"/>
</linearGradient>
<linearGradient id="paint7_linear_650_33940" x1="127.528" y1="41.8655" x2="127.528" y2="49.0658" gradientUnits="userSpaceOnUse">
<stop stop-color="#46E3FF"/>
<stop offset="1" stop-color="#2A8899"/>
</linearGradient>
</defs>
</svg>
