<svg width="20" height="20" viewBox="0 0 20 20" fill="none" xmlns="http://www.w3.org/2000/svg">
<g clip-path="url(#clip0_503_3792)">
<path d="M18.8424 3.4925C17.5128 1.94105 15.7397 0.834147 13.762 0.320774C11.7842 -0.192599 9.6967 -0.087803 7.78031 0.621057C5.86391 1.32992 4.21066 2.60882 3.04305 4.28564C1.87544 5.96246 1.24951 7.95671 1.24951 10C1.24951 12.0433 1.87544 14.0375 3.04305 15.7144C4.21066 17.3912 5.86391 18.6701 7.78031 19.3789C9.6967 20.0878 11.7842 20.1926 13.762 19.6792C15.7397 19.1659 17.5128 18.059 18.8424 16.5075L12.4999 10L18.8424 3.4925ZM13.7499 2.355C13.9331 2.355 14.1145 2.39108 14.2838 2.46119C14.453 2.53129 14.6068 2.63405 14.7363 2.76359C14.8659 2.89313 14.9686 3.04691 15.0387 3.21616C15.1089 3.38541 15.1449 3.56681 15.1449 3.75C15.1449 3.9332 15.1089 4.1146 15.0387 4.28384C14.9686 4.45309 14.8659 4.60688 14.7363 4.73642C14.6068 4.86595 14.453 4.96871 14.2838 5.03881C14.1145 5.10892 13.9331 5.145 13.7499 5.145C13.38 5.145 13.0251 4.99803 12.7635 4.73642C12.5019 4.4748 12.3549 4.11998 12.3549 3.75C12.3549 3.38002 12.5019 3.0252 12.7635 2.76359C13.0251 2.50197 13.38 2.355 13.7499 2.355Z" fill="#FF5F00"/>
</g>
<defs>
<clipPath id="clip0_503_3792">
<rect width="20" height="20" fill="white"/>
</clipPath>
</defs>
</svg>
