<svg width="131" height="20" viewBox="0 0 131 20" fill="none" xmlns="http://www.w3.org/2000/svg">
<rect width="131" height="20" rx="10" fill="#10161B"/>
<path d="M19.5 4H24.5L21.5 16H16L19.5 4Z" fill="#FF5F00"/>
<path d="M10.5 4H15.5L12.5 16H7L10.5 4Z" fill="#FF5F00"/>
<path d="M28.5 4H33.5L30.5 16H25L28.5 4Z" fill="#FF5F00"/>
<path d="M37.5 4H42.5L39.5 16H34L37.5 4Z" fill="#FF5F00"/>
<path d="M46.5 4H51.5L48.5 16H43L46.5 4Z" fill="#FF5F00"/>
<path d="M55.5 4H60.5L57.5 16H52L55.5 4Z" fill="#FF5F00"/>
<path d="M64.5 4H69.5L66.5 16H61L64.5 4Z" fill="#FF5F00"/>
<path d="M73.5 4H78.5L75.5 16H70L73.5 4Z" fill="#FF5F00"/>
</svg>
