<svg width="166" height="18" viewBox="0 0 166 18" fill="none" xmlns="http://www.w3.org/2000/svg">
<rect width="166" height="18" rx="9" fill="#10161B"/>
<path d="M19.7059 0H25L21.8235 18H16L19.7059 0Z" fill="#FF5F00"/>
<path d="M10.7059 0H16L12.8235 18H7L10.7059 0Z" fill="#FF5F00"/>
<path d="M28.7059 0H34L30.8235 18H25L28.7059 0Z" fill="#FF5F00"/>
<path d="M37.7059 0H43L39.8235 18H34L37.7059 0Z" fill="#FF5F00"/>
<path d="M46.7059 0H52L48.8235 18H43L46.7059 0Z" fill="#FF5F00"/>
<path d="M55.7059 0H61L57.8235 18H52L55.7059 0Z" fill="#FF5F00"/>
<path d="M64.7059 0H70L66.8235 18H61L64.7059 0Z" fill="#FF5F00"/>
<path d="M73.7059 0H79L75.8235 18H70L73.7059 0Z" fill="#FF5F00"/>
<path d="M82.7059 0H88L84.8235 18H79L82.7059 0Z" fill="#FF5F00"/>
<path d="M91.7059 0H97L93.8235 18H88L91.7059 0Z" fill="#FF5F00"/>
<path d="M100.706 0H106L102.824 18H97L100.706 0Z" fill="#FF5F00"/>
<path d="M109.706 0H115L111.824 18H106L109.706 0Z" fill="#FF5F00"/>
<path d="M118.706 0H124L120.824 18H115L118.706 0Z" fill="#FF5F00"/>
<path d="M127.706 0H133L129.824 18H124L127.706 0Z" fill="#FF5F00"/>
<path d="M136.706 0H142L138.824 18H133L136.706 0Z" fill="#FF5F00"/>
<path d="M145.706 0H151L147.824 18H142L145.706 0Z" fill="#FF5F00"/>
<path d="M154.706 0H160L156.824 18H151L154.706 0Z" fill="#FF5F00"/>
</svg>
