<svg width="59" height="44" viewBox="0 0 59 44" fill="none" xmlns="http://www.w3.org/2000/svg">
<path d="M50.0928 29.6172C50.9816 30.4312 51.8276 31.152 52.6172 31.7852L53.4121 32.4092C53.6312 32.5787 53.8487 32.7415 54.0576 32.8945C56.0911 34.3971 57.5889 35.221 58.1934 35.5293C56.6381 36.1376 55.0048 36.3897 53.7383 36.4863C53.0768 36.5368 52.5164 36.5452 52.1221 36.541C51.9251 36.5389 51.7692 36.534 51.6631 36.5293C51.6102 36.5269 51.5692 36.5241 51.542 36.5225C51.5287 36.5217 51.5185 36.5219 51.5117 36.5215C51.5083 36.5213 51.5056 36.5206 51.5039 36.5205H51.502L51.3945 36.5127L51.3906 36.6191L51.1123 43.3594C49.9948 42.8482 49.0427 42.3559 48.2285 41.8916C48.0054 41.7651 47.7933 41.64 47.5908 41.5186H47.5918C46.2416 40.6983 45.356 39.9975 44.8096 39.5029C44.5365 39.2558 44.3483 39.0598 44.2285 38.9268C44.1721 38.8641 44.131 38.815 44.1035 38.7812C44.1054 38.7784 44.1083 38.7755 44.1104 38.7725C44.1419 38.7253 44.1883 38.6558 44.248 38.5664C44.368 38.3868 44.542 38.1267 44.7559 37.8057C45.1836 37.1634 45.7729 36.2753 46.4199 35.2949C47.6836 33.3803 49.1664 31.109 50.0928 29.6172Z" fill="url(#paint0_linear_663_1349)" stroke="url(#paint1_linear_663_1349)" stroke-width="0.207647"/>
<path d="M8.35059 29.2119C9.27693 30.7036 10.7606 32.9747 12.0244 34.8896C12.6715 35.87 13.2617 36.7581 13.6895 37.4004C13.9032 37.7214 14.0763 37.9816 14.1963 38.1611C14.2562 38.2508 14.3034 38.3199 14.335 38.3672C14.3369 38.3701 14.339 38.3732 14.3408 38.376C14.3133 38.4097 14.273 38.459 14.2168 38.5215C14.0971 38.6545 13.9089 38.8505 13.6357 39.0977C13.1576 39.5304 12.4194 40.121 11.3379 40.8115L10.8535 41.1133C10.6513 41.2346 10.4397 41.36 10.2168 41.4863H10.2158C9.40123 41.9509 8.45552 42.4429 7.33203 42.9541L7.05469 36.2139L7.05078 36.1074L6.94336 36.1152H6.94141C6.93976 36.1153 6.93694 36.116 6.93359 36.1162C6.92676 36.1167 6.916 36.1164 6.90234 36.1172C6.87503 36.1188 6.83417 36.1217 6.78125 36.124C6.6751 36.1287 6.51922 36.1336 6.32227 36.1357C5.92801 36.1399 5.36826 36.1315 4.70703 36.0811C3.44023 35.9845 1.80565 35.7336 0.25 35.125C0.766892 34.8615 1.94087 34.2197 3.5459 33.0947L4.38672 32.4893C4.59572 32.3361 4.81298 32.1725 5.03223 32.0029C6.03856 31.2314 7.15595 30.3059 8.35059 29.2119Z" fill="url(#paint2_linear_663_1349)" stroke="url(#paint3_linear_663_1349)" stroke-width="0.207647"/>
<mask id="path-3-inside-1_663_1349" fill="white">
<path d="M29.6484 0.118652C42.3404 0.118652 52.6299 9.92518 52.6299 22.022C52.6298 34.1187 42.3403 43.9253 29.6484 43.9253C16.9566 43.9252 6.66802 34.1187 6.66797 22.022C6.66797 9.92524 16.9566 0.118757 29.6484 0.118652ZM29.6494 5.39111C20.0129 5.39111 12.2002 12.8374 12.2002 22.022C12.2005 31.2064 20.0131 38.6519 29.6494 38.6519C39.2855 38.6516 47.0974 31.2062 47.0977 22.022C47.0977 12.8375 39.2857 5.39133 29.6494 5.39111Z"/>
</mask>
<path d="M29.6484 0.118652C42.3404 0.118652 52.6299 9.92518 52.6299 22.022C52.6298 34.1187 42.3403 43.9253 29.6484 43.9253C16.9566 43.9252 6.66802 34.1187 6.66797 22.022C6.66797 9.92524 16.9566 0.118757 29.6484 0.118652ZM29.6494 5.39111C20.0129 5.39111 12.2002 12.8374 12.2002 22.022C12.2005 31.2064 20.0131 38.6519 29.6494 38.6519C39.2855 38.6516 47.0974 31.2062 47.0977 22.022C47.0977 12.8375 39.2857 5.39133 29.6494 5.39111Z" fill="#E36302"/>
<path d="M29.6484 0.118652V-0.0889942H29.6484L29.6484 0.118652ZM52.6299 22.022H52.8375H52.6299ZM29.6484 43.9253L29.6484 44.1329H29.6484V43.9253ZM6.66797 22.022H6.46032H6.66797ZM29.6494 5.39111L29.6494 5.18347H29.6494V5.39111ZM12.2002 22.022H11.9925V22.022L12.2002 22.022ZM29.6494 38.6519V38.8595H29.6494L29.6494 38.6519ZM47.0977 22.022L47.3053 22.022V22.022H47.0977ZM29.6484 0.118652V0.326299C42.2352 0.326299 52.4222 10.0491 52.4222 22.022H52.6299H52.8375C52.8375 9.80121 42.4455 -0.0889942 29.6484 -0.0889942V0.118652ZM52.6299 22.022H52.4222C52.4222 33.9948 42.2352 43.7176 29.6484 43.7176V43.9253V44.1329C42.4455 44.1329 52.8375 34.2427 52.8375 22.022H52.6299ZM29.6484 43.9253L29.6484 43.7176C17.0618 43.7175 6.87567 33.9947 6.87562 22.022H6.66797H6.46032C6.46038 34.2426 16.8515 44.1328 29.6484 44.1329L29.6484 43.9253ZM6.66797 22.022H6.87562C6.87562 10.0492 17.0618 0.326402 29.6484 0.326299L29.6484 0.118652L29.6484 -0.0889942C16.8514 -0.0888892 6.46032 9.80128 6.46032 22.022H6.66797ZM29.6494 5.39111V5.18347C19.9078 5.18347 11.9925 12.7134 11.9925 22.022H12.2002H12.4078C12.4078 12.9613 20.1181 5.59876 29.6494 5.59876V5.39111ZM12.2002 22.022L11.9925 22.022C11.9928 31.3303 19.908 38.8595 29.6494 38.8595V38.6519V38.4442C20.1183 38.4442 12.4081 31.0824 12.4078 22.022L12.2002 22.022ZM29.6494 38.6519L29.6494 38.8595C39.3907 38.8593 47.305 31.3302 47.3053 22.022L47.0977 22.022L46.89 22.022C46.8897 31.0823 39.1804 38.444 29.6494 38.4442L29.6494 38.6519ZM47.0977 22.022H47.3053C47.3053 12.7135 39.3909 5.18368 29.6494 5.18347L29.6494 5.39111L29.6494 5.59876C39.1805 5.59897 46.89 12.9615 46.89 22.022H47.0977Z" fill="url(#paint4_linear_663_1349)" mask="url(#path-3-inside-1_663_1349)"/>
<mask id="mask0_663_1349" style="mask-type:alpha" maskUnits="userSpaceOnUse" x="6" y="0" width="47" height="44">
<mask id="path-5-inside-2_663_1349" fill="white">
<path d="M29.6484 0.118652C42.3404 0.118652 52.6299 9.92518 52.6299 22.022C52.6298 34.1187 42.3403 43.9253 29.6484 43.9253C16.9566 43.9252 6.66802 34.1187 6.66797 22.022C6.66797 9.92524 16.9566 0.118757 29.6484 0.118652ZM29.6494 5.39111C20.0129 5.39111 12.2002 12.8374 12.2002 22.022C12.2005 31.2064 20.0131 38.6519 29.6494 38.6519C39.2855 38.6516 47.0974 31.2062 47.0977 22.022C47.0977 12.8375 39.2857 5.39133 29.6494 5.39111Z"/>
</mask>
<path d="M29.6484 0.118652C42.3404 0.118652 52.6299 9.92518 52.6299 22.022C52.6298 34.1187 42.3403 43.9253 29.6484 43.9253C16.9566 43.9252 6.66802 34.1187 6.66797 22.022C6.66797 9.92524 16.9566 0.118757 29.6484 0.118652ZM29.6494 5.39111C20.0129 5.39111 12.2002 12.8374 12.2002 22.022C12.2005 31.2064 20.0131 38.6519 29.6494 38.6519C39.2855 38.6516 47.0974 31.2062 47.0977 22.022C47.0977 12.8375 39.2857 5.39133 29.6494 5.39111Z" fill="#6C7E92"/>
<path d="M29.6484 0.118652V-0.0889942H29.6484L29.6484 0.118652ZM52.6299 22.022H52.8375H52.6299ZM29.6484 43.9253L29.6484 44.1329H29.6484V43.9253ZM6.66797 22.022H6.46032H6.66797ZM29.6494 5.39111L29.6494 5.18347H29.6494V5.39111ZM12.2002 22.022H11.9925V22.022L12.2002 22.022ZM29.6494 38.6519V38.8595H29.6494L29.6494 38.6519ZM47.0977 22.022L47.3053 22.022V22.022H47.0977ZM29.6484 0.118652V0.326299C42.2352 0.326299 52.4222 10.0491 52.4222 22.022H52.6299H52.8375C52.8375 9.80121 42.4455 -0.0889942 29.6484 -0.0889942V0.118652ZM52.6299 22.022H52.4222C52.4222 33.9948 42.2352 43.7176 29.6484 43.7176V43.9253V44.1329C42.4455 44.1329 52.8375 34.2427 52.8375 22.022H52.6299ZM29.6484 43.9253L29.6484 43.7176C17.0618 43.7175 6.87567 33.9947 6.87562 22.022H6.66797H6.46032C6.46038 34.2426 16.8515 44.1328 29.6484 44.1329L29.6484 43.9253ZM6.66797 22.022H6.87562C6.87562 10.0492 17.0618 0.326402 29.6484 0.326299L29.6484 0.118652L29.6484 -0.0889942C16.8514 -0.0888892 6.46032 9.80128 6.46032 22.022H6.66797ZM29.6494 5.39111V5.18347C19.9078 5.18347 11.9925 12.7134 11.9925 22.022H12.2002H12.4078C12.4078 12.9613 20.1181 5.59876 29.6494 5.59876V5.39111ZM12.2002 22.022L11.9925 22.022C11.9928 31.3303 19.908 38.8595 29.6494 38.8595V38.6519V38.4442C20.1183 38.4442 12.4081 31.0824 12.4078 22.022L12.2002 22.022ZM29.6494 38.6519L29.6494 38.8595C39.3907 38.8593 47.305 31.3302 47.3053 22.022L47.0977 22.022L46.89 22.022C46.8897 31.0823 39.1804 38.444 29.6494 38.4442L29.6494 38.6519ZM47.0977 22.022H47.3053C47.3053 12.7135 39.3909 5.18368 29.6494 5.18347L29.6494 5.39111L29.6494 5.59876C39.1805 5.59897 46.89 12.9615 46.89 22.022H47.0977Z" fill="url(#paint5_linear_663_1349)" mask="url(#path-5-inside-2_663_1349)"/>
</mask>
<g mask="url(#mask0_663_1349)">
<g filter="url(#filter0_f_663_1349)">
<ellipse cx="7.98361" cy="14.9892" rx="7.98361" ry="14.9892" transform="matrix(0.752587 0.658493 -0.693724 0.720241 25.1504 -9.71924)" fill="#FBEB93"/>
<path d="M31.0868 -4.38767C32.703 -2.97354 33.049 -0.498445 32.2585 2.39233C31.4692 5.27822 29.5524 8.55117 26.6905 11.5225C23.8285 14.4938 20.5707 16.5934 17.6212 17.5891C14.6667 18.5865 12.0498 18.4691 10.4336 17.055C8.81751 15.6408 8.47136 13.1656 9.26188 10.275C10.0512 7.38912 11.968 4.11607 14.8299 1.1448C17.6918 -1.82646 20.9498 -3.92603 23.8992 -4.92183C26.8536 -5.91919 29.4706 -5.80167 31.0868 -4.38767Z" stroke="url(#paint6_linear_663_1349)" stroke-width="0.207647"/>
</g>
<g filter="url(#filter1_f_663_1349)">
<ellipse cx="5.18826" cy="14.2509" rx="5.18826" ry="14.2509" transform="matrix(-0.876113 0.482105 -0.518111 -0.855313 55.3506 15.8442)" fill="#F9C94D"/>
<path d="M50.7513 18.2571C50.1602 18.5823 49.3908 18.5773 48.4896 18.2654C47.5886 17.9536 46.5686 17.3386 45.4948 16.4665C43.348 14.723 41.0013 11.9657 38.9672 8.60759C36.933 5.24947 35.6009 1.93391 35.0901 -0.7099C34.8346 -2.03229 34.7858 -3.18169 34.9529 -4.0813C35.1202 -4.98104 35.5009 -5.61781 36.0919 -5.9431C36.683 -6.2684 37.4525 -6.26474 38.3539 -5.95275C39.2549 -5.6409 40.274 -5.02544 41.3478 -4.15338C43.4947 -2.40983 45.8421 0.346916 47.8763 3.70509C49.9105 7.06323 51.2417 10.3792 51.7525 13.0231C52.008 14.3454 52.0576 15.4944 51.8905 16.394C51.7233 17.294 51.3424 17.9318 50.7513 18.2571Z" stroke="url(#paint7_linear_663_1349)" stroke-width="0.207647"/>
</g>
<g filter="url(#filter2_f_663_1349)">
<ellipse cx="5.12712" cy="10.3928" rx="5.12712" ry="10.3928" transform="matrix(-0.723875 -0.689931 0.723875 -0.689931 38.6318 47.6284)" fill="#FEDB78"/>
<path d="M34.9955 44.0198C34.015 43.0852 33.9145 41.4492 34.6003 39.5224C35.2838 37.6024 36.7388 35.4266 38.8071 33.4552C40.8755 31.4838 43.1584 30.0971 45.1729 29.4456C47.1945 28.7919 48.9109 28.8877 49.8915 29.8223C50.8719 30.7568 50.9725 32.3928 50.2866 34.3196C49.6031 36.2396 48.1482 38.4155 46.0798 40.3868C44.0114 42.3582 41.7286 43.745 39.7141 44.3964C37.6925 45.0501 35.976 44.9542 34.9955 44.0198Z" stroke="url(#paint8_linear_663_1349)" stroke-width="0.207647"/>
</g>
<g filter="url(#filter3_f_663_1349)">
<ellipse cx="5.12711" cy="10.3928" rx="5.12711" ry="10.3928" transform="matrix(0.723874 -0.689932 0.723874 0.689932 4.53906 31.395)" fill="#FBE515"/>
<path d="M8.32526 27.9292C9.30577 26.9947 11.0223 26.8989 13.0439 27.5526C15.0584 28.204 17.3412 29.5907 19.4096 31.5621C21.478 33.5335 22.9329 35.7093 23.6164 37.6293C24.3023 39.5562 24.2018 41.1921 23.2212 42.1267C22.2407 43.0612 20.5242 43.1571 18.5026 42.5033C16.4882 41.8518 14.2052 40.4651 12.1369 38.4938C10.0686 36.5224 8.61359 34.3466 7.9301 32.4265C7.24421 30.4998 7.34484 28.8638 8.32526 27.9292Z" stroke="url(#paint9_linear_663_1349)" stroke-width="0.207647"/>
</g>
</g>
<path d="M29.6484 5.49463C39.2322 5.49463 46.993 12.8985 46.9932 22.021C46.9932 31.1436 39.2323 38.5474 29.6484 38.5474C20.0646 38.5473 12.3037 31.1436 12.3037 22.021C12.3039 12.8986 20.0647 5.49469 29.6484 5.49463Z" fill="url(#paint10_linear_663_1349)" stroke="url(#paint11_linear_663_1349)" stroke-width="0.207647"/>
<mask id="path-16-inside-3_663_1349" fill="white">
<path d="M29.6484 4.1748C39.9898 4.17493 48.3729 12.165 48.373 22.0215C48.373 31.8781 39.9899 39.869 29.6484 39.8691C19.3069 39.8691 10.9229 31.8781 10.9229 22.0215C10.923 12.165 19.307 4.1748 29.6484 4.1748ZM29.6494 5.3916C20.0129 5.3916 12.2002 12.8369 12.2002 22.0215C12.2003 31.206 20.013 38.6514 29.6494 38.6514C39.2856 38.6512 47.0976 31.2059 47.0977 22.0215C47.0977 12.837 39.2857 5.39182 29.6494 5.3916Z"/>
</mask>
<path d="M29.6484 4.1748C39.9898 4.17493 48.3729 12.165 48.373 22.0215C48.373 31.8781 39.9899 39.869 29.6484 39.8691C19.3069 39.8691 10.9229 31.8781 10.9229 22.0215C10.923 12.165 19.307 4.1748 29.6484 4.1748ZM29.6494 5.3916C20.0129 5.3916 12.2002 12.8369 12.2002 22.0215C12.2003 31.206 20.013 38.6514 29.6494 38.6514C39.2856 38.6512 47.0976 31.2059 47.0977 22.0215C47.0977 12.837 39.2857 5.39182 29.6494 5.3916Z" fill="url(#paint12_linear_663_1349)"/>
<path d="M29.6484 4.1748L29.6484 3.96716H29.6484V4.1748ZM48.373 22.0215H48.5807V22.0215L48.373 22.0215ZM29.6484 39.8691V40.0768H29.6484L29.6484 39.8691ZM10.9229 22.0215L10.7152 22.0215V22.0215H10.9229ZM29.6494 5.3916L29.6494 5.18395H29.6494V5.3916ZM12.2002 22.0215H11.9925V22.0215L12.2002 22.0215ZM29.6494 38.6514V38.859H29.6494L29.6494 38.6514ZM47.0977 22.0215L47.3053 22.0215V22.0215H47.0977ZM29.6484 4.1748L29.6484 4.38245C39.8846 4.38257 48.1653 12.289 48.1654 22.0215L48.373 22.0215L48.5807 22.0215C48.5805 12.0411 40.095 3.96728 29.6484 3.96716L29.6484 4.1748ZM48.373 22.0215H48.1654C48.1654 31.7541 39.8847 39.6614 29.6484 39.6615L29.6484 39.8691L29.6484 40.0768C40.0951 40.0767 48.5807 32.002 48.5807 22.0215H48.373ZM29.6484 39.8691V39.6615C19.412 39.6615 11.1305 31.7542 11.1305 22.0215H10.9229H10.7152C10.7152 32.0021 19.2017 40.0768 29.6484 40.0768V39.8691ZM10.9229 22.0215L11.1305 22.0215C11.1306 12.2889 19.4121 4.38245 29.6484 4.38245V4.1748V3.96716C19.2018 3.96716 10.7154 12.041 10.7152 22.0215L10.9229 22.0215ZM29.6494 5.3916V5.18395C19.9078 5.18395 11.9925 12.7129 11.9925 22.0215H12.2002H12.4078C12.4078 12.9609 20.1181 5.59925 29.6494 5.59925V5.3916ZM12.2002 22.0215L11.9925 22.0215C11.9926 31.33 19.9078 38.859 29.6494 38.859V38.6514V38.4437C20.1181 38.4437 12.4079 31.082 12.4078 22.0215L12.2002 22.0215ZM29.6494 38.6514L29.6494 38.859C39.3908 38.8588 47.3052 31.3299 47.3053 22.0215L47.0977 22.0215L46.89 22.0215C46.8899 31.0819 39.1805 38.4435 29.6494 38.4437L29.6494 38.6514ZM47.0977 22.0215H47.3053C47.3053 12.713 39.3909 5.18417 29.6494 5.18395L29.6494 5.3916L29.6494 5.59925C39.1805 5.59946 46.89 12.961 46.89 22.0215H47.0977Z" fill="url(#paint13_linear_663_1349)" mask="url(#path-16-inside-3_663_1349)"/>
<path d="M29.4189 27.9048L25.833 29.7007H25.832C25.6364 29.8004 25.4177 29.8518 25.1953 29.8521C24.996 29.8514 24.7994 29.8103 24.6191 29.73C24.4388 29.6496 24.279 29.5336 24.1514 29.3892C24.0238 29.2447 23.9307 29.0755 23.8789 28.894C23.8271 28.7125 23.8175 28.5218 23.8506 28.3364L24.5361 24.5327C24.5485 24.4646 24.5429 24.3942 24.5205 24.3286C24.4981 24.2632 24.4593 24.2039 24.4082 24.1567L21.5088 21.4624C21.3271 21.2932 21.1991 21.079 21.1387 20.8452C21.0782 20.6115 21.087 20.3663 21.165 20.1372C21.243 19.9081 21.387 19.7038 21.5811 19.5474C21.7752 19.391 22.0121 19.2889 22.2646 19.2534L26.2734 18.6987H26.2744C26.3436 18.6888 26.4097 18.6632 26.4668 18.6235C26.524 18.5838 26.5705 18.5307 26.6025 18.4692L28.3955 15.0063C28.5076 14.7901 28.6821 14.6071 28.8984 14.479C29.1147 14.351 29.3648 14.2827 29.6201 14.2827C29.8755 14.2827 30.1255 14.351 30.3418 14.479C30.5581 14.6071 30.7326 14.79 30.8447 15.0063L32.6377 18.4692C32.6697 18.5307 32.7162 18.5838 32.7734 18.6235C32.8306 18.6632 32.8967 18.6888 32.9658 18.6987H32.9668L36.9746 19.2534C37.2273 19.2889 37.4649 19.3909 37.6592 19.5474C37.8532 19.7038 37.9972 19.9082 38.0752 20.1372C38.1532 20.3663 38.162 20.6115 38.1016 20.8452C38.0411 21.079 37.9132 21.2932 37.7314 21.4624L34.832 24.1567C34.7809 24.2039 34.7422 24.2631 34.7197 24.3286C34.6973 24.3942 34.6918 24.4645 34.7041 24.5327L35.3896 28.3364C35.4227 28.5218 35.4131 28.7125 35.3613 28.894C35.3095 29.0755 35.2165 29.2447 35.0889 29.3892C34.9613 29.5336 34.8014 29.6496 34.6211 29.73C34.4407 29.8104 34.2435 29.8514 34.0439 29.8521C33.8218 29.8517 33.6036 29.8002 33.4082 29.7007H33.4072L29.8203 27.9048C29.7583 27.8739 29.6896 27.8579 29.6201 27.8579C29.5503 27.8579 29.4812 27.8736 29.4189 27.9048Z" fill="#9A3E07" stroke="url(#paint14_linear_663_1349)" stroke-width="0.207647"/>
<path d="M29.6211 14.8237C29.7706 14.8238 29.9167 14.8641 30.043 14.939C30.1693 15.0139 30.271 15.1207 30.3359 15.2466V15.2476L32.1289 18.7095C32.2017 18.8493 32.3089 18.97 32.4404 19.061C32.572 19.1521 32.7246 19.2115 32.8848 19.2339L36.8936 19.7896C37.0415 19.81 37.1804 19.8693 37.2939 19.9604C37.4074 20.0516 37.4917 20.1711 37.5371 20.3042C37.5825 20.4374 37.5879 20.5805 37.5527 20.7163C37.5176 20.852 37.4429 20.9761 37.3369 21.0747L34.4355 23.77C34.319 23.8786 34.2313 24.0128 34.1807 24.1616C34.1301 24.3105 34.1186 24.4691 34.1465 24.6235L34.8301 28.4302C34.8552 28.5678 34.8393 28.7095 34.7842 28.8394C34.7289 28.9693 34.6359 29.0832 34.5156 29.1665C34.3952 29.2499 34.2519 29.2999 34.1025 29.3101C33.9532 29.3202 33.8037 29.2896 33.6719 29.2231L30.0928 27.4282C29.9489 27.3557 29.7892 27.3179 29.627 27.3179C29.4647 27.3179 29.3041 27.3548 29.1602 27.4272L25.5703 29.2231H25.5693C25.4375 29.2896 25.288 29.3202 25.1387 29.3101C24.9895 29.2999 24.8468 29.2497 24.7266 29.1665C24.6062 29.0832 24.5133 28.9694 24.458 28.8394C24.4028 28.7095 24.387 28.5679 24.4121 28.4302L25.0957 24.6235C25.1235 24.4692 25.1121 24.3105 25.0615 24.1616C25.0109 24.0127 24.9223 23.8787 24.8057 23.77L21.9053 21.0747C21.7992 20.9761 21.7247 20.852 21.6895 20.7163C21.6543 20.5805 21.6597 20.4374 21.7051 20.3042C21.7505 20.1711 21.8339 20.0516 21.9473 19.9604C22.0608 19.8693 22.1997 19.8101 22.3477 19.7896L26.3564 19.2339H26.3574C26.5174 19.2114 26.6693 19.152 26.8008 19.061C26.9324 18.97 27.0394 18.8494 27.1123 18.7095H27.1133L28.9062 15.2476V15.2466C28.9712 15.1208 29.072 15.0139 29.1982 14.939C29.3247 14.8639 29.4714 14.8237 29.6211 14.8237Z" fill="url(#paint15_linear_663_1349)" stroke="url(#paint16_linear_663_1349)" stroke-width="0.207647"/>
<path d="M29.6484 5.91064C39.0219 5.91064 46.5779 13.1464 46.5781 22.021C46.5781 30.8957 39.022 38.1323 29.6484 38.1323C20.275 38.1323 12.7197 30.8956 12.7197 22.021C12.7199 13.1465 20.2751 5.91071 29.6484 5.91064Z" stroke="url(#paint17_linear_663_1349)" stroke-width="1.03823"/>
<path opacity="0.15" d="M29.8184 0.222168C35.5462 0.222168 40.6539 2.31734 44.6904 5.60693H44.6914C45.7112 6.436 46.6558 7.43587 47.5254 8.43311C46.4726 9.6278 45.5085 10.562 44.334 11.646L44.333 11.647C44.2886 11.689 44.2436 11.731 44.1992 11.7729C44.1549 11.8149 44.1107 11.857 44.0664 11.8989C44.0081 11.9541 43.9641 11.9956 43.9062 12.0503C43.7935 12.1499 43.6831 12.2514 43.5713 12.3521L43.2285 12.6499C43.1363 12.7228 43.0594 12.7954 42.9717 12.8784C42.9097 12.9241 42.8494 12.9804 42.8086 13.019C42.7395 13.0843 42.6699 13.1367 42.5957 13.1929L42.5918 13.1968C34.7393 19.7751 24.7602 23.7839 14.2197 24.5103C14.1664 24.5106 14.1169 24.5138 14.0713 24.5171C14.023 24.5206 13.9788 24.5239 13.9316 24.5239C13.889 24.5239 13.8467 24.5283 13.8105 24.5317C13.7727 24.5353 13.7402 24.5386 13.709 24.5386C13.6462 24.5386 13.5872 24.5419 13.5322 24.5454C13.4765 24.5489 13.4244 24.5522 13.3691 24.5522H13.3652C12.9753 24.5664 12.5972 24.5942 12.2148 24.5942C12.1524 24.5943 12.0865 24.5976 12.0244 24.6011C11.9611 24.6046 11.9013 24.6079 11.8457 24.6079H11.8408C11.5478 24.6218 11.2541 24.6226 10.9727 24.6226C9.627 24.6226 8.28215 24.5808 6.92383 24.4741C6.82726 23.6786 6.77149 22.8585 6.77148 22.0386C6.77148 9.99357 17.0895 0.222241 29.8184 0.222168Z" fill="url(#paint18_linear_663_1349)" stroke="url(#paint19_linear_663_1349)" stroke-width="0.207647"/>
<defs>
<filter id="filter0_f_663_1349" x="-3.50212" y="-17.9279" width="48.5248" height="48.5233" filterUnits="userSpaceOnUse" color-interpolation-filters="sRGB">
<feFlood flood-opacity="0" result="BackgroundImageFix"/>
<feBlend mode="normal" in="SourceGraphic" in2="BackgroundImageFix" result="shape"/>
<feGaussianBlur stdDeviation="6.12557" result="effect1_foregroundBlur_663_1349"/>
</filter>
<filter id="filter1_f_663_1349" x="22.4989" y="-18.5402" width="41.846" height="49.3934" filterUnits="userSpaceOnUse" color-interpolation-filters="sRGB">
<feFlood flood-opacity="0" result="BackgroundImageFix"/>
<feBlend mode="normal" in="SourceGraphic" in2="BackgroundImageFix" result="shape"/>
<feGaussianBlur stdDeviation="6.12557" result="effect1_foregroundBlur_663_1349"/>
</filter>
<filter id="filter2_f_663_1349" x="21.8016" y="16.6722" width="41.2835" height="40.4969" filterUnits="userSpaceOnUse" color-interpolation-filters="sRGB">
<feFlood flood-opacity="0" result="BackgroundImageFix"/>
<feBlend mode="normal" in="SourceGraphic" in2="BackgroundImageFix" result="shape"/>
<feGaussianBlur stdDeviation="6.12557" result="effect1_foregroundBlur_663_1349"/>
</filter>
<filter id="filter3_f_663_1349" x="-4.86834" y="14.7796" width="41.2835" height="40.4969" filterUnits="userSpaceOnUse" color-interpolation-filters="sRGB">
<feFlood flood-opacity="0" result="BackgroundImageFix"/>
<feBlend mode="normal" in="SourceGraphic" in2="BackgroundImageFix" result="shape"/>
<feGaussianBlur stdDeviation="6.12557" result="effect1_foregroundBlur_663_1349"/>
</filter>
<linearGradient id="paint0_linear_663_1349" x1="55.2718" y1="39.8517" x2="46.9385" y2="33.7238" gradientUnits="userSpaceOnUse">
<stop stop-color="#FC0106"/>
<stop offset="0.5559" stop-color="#E82626"/>
<stop offset="0.6787" stop-color="#B90004"/>
<stop offset="1" stop-color="#790400"/>
</linearGradient>
<linearGradient id="paint1_linear_663_1349" x1="51.2103" y1="29.458" x2="51.2103" y2="43.5193" gradientUnits="userSpaceOnUse">
<stop stop-color="#FF5F00"/>
<stop offset="1" stop-color="#9A3E07"/>
</linearGradient>
<linearGradient id="paint2_linear_663_1349" x1="4.96498" y1="38.7199" x2="10.485" y2="33.8668" gradientUnits="userSpaceOnUse">
<stop stop-color="#FC0106"/>
<stop offset="0.493927" stop-color="#E82626"/>
<stop offset="0.716768" stop-color="#B90004"/>
<stop offset="1" stop-color="#790400"/>
</linearGradient>
<linearGradient id="paint3_linear_663_1349" x1="7.23469" y1="29.0527" x2="7.23469" y2="43.114" gradientUnits="userSpaceOnUse">
<stop stop-color="#FF5F00"/>
<stop offset="1" stop-color="#9A3E07"/>
</linearGradient>
<linearGradient id="paint4_linear_663_1349" x1="29.6489" y1="0.118652" x2="29.6489" y2="43.9253" gradientUnits="userSpaceOnUse">
<stop stop-color="#FF5F00"/>
<stop offset="1" stop-color="#9A3E07"/>
</linearGradient>
<linearGradient id="paint5_linear_663_1349" x1="29.6489" y1="0.118652" x2="29.6489" y2="43.9253" gradientUnits="userSpaceOnUse">
<stop stop-color="#FF5F00"/>
<stop offset="1" stop-color="#9A3E07"/>
</linearGradient>
<linearGradient id="paint6_linear_663_1349" x1="31.1587" y1="-4.46209" x2="11.4407" y2="18.0735" gradientUnits="userSpaceOnUse">
<stop stop-color="#FF5F00"/>
<stop offset="1" stop-color="#9A3E07"/>
</linearGradient>
<linearGradient id="paint7_linear_663_1349" x1="50.8051" y1="18.3455" x2="37.0761" y2="-6.60365" gradientUnits="userSpaceOnUse">
<stop stop-color="#FF5F00"/>
<stop offset="1" stop-color="#9A3E07"/>
</linearGradient>
<linearGradient id="paint8_linear_663_1349" x1="34.9204" y1="44.0911" x2="49.2445" y2="29.0622" gradientUnits="userSpaceOnUse">
<stop stop-color="#FF5F00"/>
<stop offset="1" stop-color="#9A3E07"/>
</linearGradient>
<linearGradient id="paint9_linear_663_1349" x1="8.25045" y1="27.8577" x2="22.5746" y2="42.8865" gradientUnits="userSpaceOnUse">
<stop stop-color="#FF5F00"/>
<stop offset="1" stop-color="#9A3E07"/>
</linearGradient>
<linearGradient id="paint10_linear_663_1349" x1="29.6486" y1="5.39111" x2="29.6486" y2="38.6515" gradientUnits="userSpaceOnUse">
<stop stop-color="#CF723B"/>
<stop offset="0.5" stop-color="#FF5F00"/>
<stop offset="1" stop-color="#E25400"/>
</linearGradient>
<linearGradient id="paint11_linear_663_1349" x1="29.6486" y1="5.39111" x2="29.6486" y2="38.6515" gradientUnits="userSpaceOnUse">
<stop stop-color="#FF5F00"/>
<stop offset="1" stop-color="#9A3E07"/>
</linearGradient>
<linearGradient id="paint12_linear_663_1349" x1="29.6479" y1="3.9875" x2="29.6479" y2="39.8512" gradientUnits="userSpaceOnUse">
<stop stop-color="#FFEE02"/>
<stop offset="0.5" stop-color="#D27003"/>
<stop offset="1" stop-color="#FBA400"/>
</linearGradient>
<linearGradient id="paint13_linear_663_1349" x1="29.6479" y1="4.1748" x2="29.6479" y2="39.8692" gradientUnits="userSpaceOnUse">
<stop stop-color="#FF5F00"/>
<stop offset="1" stop-color="#9A3E07"/>
</linearGradient>
<linearGradient id="paint14_linear_663_1349" x1="29.62" y1="14.1792" x2="29.62" y2="29.9572" gradientUnits="userSpaceOnUse">
<stop stop-color="#FF5F00"/>
<stop offset="1" stop-color="#9A3E07"/>
</linearGradient>
<linearGradient id="paint15_linear_663_1349" x1="29.6233" y1="14.8652" x2="29.6233" y2="27.6483" gradientUnits="userSpaceOnUse">
<stop offset="0.0820804" stop-color="#F7E547"/>
<stop offset="0.2263" stop-color="#FEFCAF"/>
<stop offset="0.3883" stop-color="#F8DC20"/>
<stop offset="0.5895" stop-color="#E67A0B"/>
<stop offset="1" stop-color="#F8DC20"/>
</linearGradient>
<linearGradient id="paint16_linear_663_1349" x1="29.6209" y1="14.7202" x2="29.6209" y2="29.4155" gradientUnits="userSpaceOnUse">
<stop stop-color="#FF5F00"/>
<stop offset="1" stop-color="#9A3E07"/>
</linearGradient>
<linearGradient id="paint17_linear_663_1349" x1="29.6486" y1="5.39111" x2="29.6486" y2="38.6515" gradientUnits="userSpaceOnUse">
<stop stop-color="#FF5F00"/>
<stop offset="1" stop-color="#9A3E07"/>
</linearGradient>
<linearGradient id="paint18_linear_663_1349" x1="17.5006" y1="3.49527" x2="29.6703" y2="21.3674" gradientUnits="userSpaceOnUse">
<stop offset="0.5084" stop-color="white" stop-opacity="0"/>
<stop offset="1" stop-color="white"/>
</linearGradient>
<linearGradient id="paint19_linear_663_1349" x1="27.1663" y1="0.118652" x2="27.1663" y2="24.7259" gradientUnits="userSpaceOnUse">
<stop stop-color="#FF5F00"/>
<stop offset="1" stop-color="#9A3E07"/>
</linearGradient>
</defs>
</svg>
