<svg width="21" height="19" viewBox="0 0 21 19" fill="none" xmlns="http://www.w3.org/2000/svg">
<path d="M5.548 10.406L9.083 13.942L7.67 15.356L9.085 16.771L7.671 18.185L5.196 15.71L2.367 18.539L0.953003 17.125L3.782 14.295L1.307 11.821L2.721 10.407L4.135 11.82L5.548 10.406ZM1.5 0L5.046 0.00300002L16.863 11.821L18.278 10.407L19.693 11.821L17.218 14.296L20.046 17.125L18.632 18.539L15.803 15.71L13.329 18.185L11.914 16.771L13.328 15.356L1.502 3.531L1.5 0ZM15.957 0L19.5 0.00300002L19.502 3.526L15.449 7.578L11.913 4.043L15.957 0Z" fill="url(#paint0_linear_757_4604)"/>
<defs>
<linearGradient id="paint0_linear_757_4604" x1="10.4995" y1="0" x2="10.4995" y2="18.539" gradientUnits="userSpaceOnUse">
<stop stop-color="#46E3FF"/>
<stop offset="1" stop-color="#FF5F00"/>
</linearGradient>
</defs>
</svg>
